<?xml version="1.0" encoding="UTF-8" standalone="no" ?>
<!DOCTYPE svg PUBLIC "-//W3C//DTD SVG 1.1//EN" "http://www.w3.org/Graphics/SVG/1.1/DTD/svg11.dtd">
<svg xmlns="http://www.w3.org/2000/svg" xmlns:xlink="http://www.w3.org/1999/xlink" version="1.1" width="1080" height="1080" viewBox="0 0 1080 1080" xml:space="preserve">
<desc>Created with Fabric.js 5.2.4</desc>
<defs>
</defs>
<rect x="0" y="0" width="100%" height="100%" fill="transparent"></rect>
<g transform="matrix(1 0 0 1 540 540)" id="c1ba092f-eeac-4d5f-9d1a-445f30c6631b"  >
<rect style="stroke: none; stroke-width: 1; stroke-dasharray: none; stroke-linecap: butt; stroke-dashoffset: 0; stroke-linejoin: miter; stroke-miterlimit: 4; fill: rgb(255,255,255); fill-rule: nonzero; opacity: 1; visibility: hidden;" vector-effect="non-scaling-stroke"  x="-540" y="-540" rx="0" ry="0" width="1080" height="1080" />
</g>
<g transform="matrix(1 0 0 1 540 540)" id="a4846d8a-d19e-497f-95db-1c1283a74b0c"  >
</g>
<g transform="matrix(9.39 0 0 9.39 541.97 540)"  >
<path style="stroke: none; stroke-width: 1; stroke-dasharray: none; stroke-linecap: butt; stroke-dashoffset: 0; stroke-linejoin: miter; stroke-miterlimit: 4; fill: rgb(46,178,255); fill-rule: nonzero; opacity: 1;" vector-effect="non-scaling-stroke"  transform=" translate(-48.32, -60.33)" d="M 82.53 30.5 L 14.1 98.93 L 14.1 55 L 55.37 13.73 L 82.53 13.73 L 82.53 30.5 Z M 48.31 73.5 L 81.72 106.91 L 14.9 106.91 L 48.31 73.5 Z M 82.53 98.93 L 52.71 69.1 L 82.53 39.27 L 82.53 98.92 L 82.53 98.93 Z M 14.1 13.73 L 46.59 13.73 L 14.1 46.22 L 14.1 13.73 Z M 7.89 7.52002 L 7.89 113.13 L 88.75 113.13 L 88.75 7.52002 L 7.89 7.52002 Z" stroke-linecap="round" />
</g>
<g transform="matrix(0 0 0 0 0 0)"  >
<g style=""   >
</g>
</g>
<g transform="matrix(0 0 0 0 0 0)"  >
<g style=""   >
</g>
</g>
<g transform="matrix(0 0 0 0 0 0)"  >
<g style=""   >
</g>
</g>
<g transform="matrix(0 0 0 0 0 0)"  >
<g style=""   >
</g>
</g>
<g transform="matrix(0 0 0 0 0 0)"  >
<g style=""   >
</g>
</g>
<g transform="matrix(0 0 0 0 0 0)"  >
<g style=""   >
</g>
</g>
<g transform="matrix(0 0 0 0 0 0)"  >
<g style=""   >
</g>
</g>
<g transform="matrix(2.11 0 0 2.11 540 544.61)" id="4ba66e30-f43b-4bf2-877f-4cddf5eb1bda"  >
<polygon style="stroke: rgb(0,0,0); stroke-width: 0; stroke-dasharray: none; stroke-linecap: butt; stroke-dashoffset: 0; stroke-linejoin: miter; stroke-miterlimit: 4; fill: rgb(46,178,255); fill-rule: nonzero; opacity: 1;" vector-effect="non-scaling-stroke"  points="178.95,-207.15 -81.65,53.55 -179.05,-43.85 -255.85,33.05 -81.75,207.15 -59.25,184.75 -59.25,184.75 255.85,-130.35 178.95,-207.15 " />
</g>
<g transform="matrix(0 0 0 0 0 0)"  >
<g style=""   >
</g>
</g>
<g transform="matrix(0 0 0 0 0 0)"  >
<g style=""   >
</g>
</g>
</svg>